<svg xmlns="http://www.w3.org/2000/svg" xmlns:xlink="http://www.w3.org/1999/xlink" viewBox="0 0 280.72169 94.4356">
  <defs>
    <style>
      .cls-1 {
        fill: url(#linear-gradient);
      }

      .cls-2 {
        fill: #bcbec0;
      }
    </style>
    <linearGradient id="linear-gradient" x1="2.1504" y1="56.20605" x2="74.2441" y2="56.20605" gradientUnits="userSpaceOnUse">
      <stop offset="0" stop-color="#231f20"/>
      <stop offset="0.12501" stop-color="#292526"/>
      <stop offset="0.29298" stop-color="#393637"/>
      <stop offset="0.48541" stop-color="#545253"/>
      <stop offset="0.69606" stop-color="#79797a"/>
      <stop offset="0.91898" stop-color="#a9aaac"/>
      <stop offset="1" stop-color="#bcbec0"/>
    </linearGradient>
  </defs>
  <title>Fichier 1</title>
  <g id="Calque_2" data-name="Calque 2">
    <g id="Layer_1" data-name="Layer 1">
      <g>
        <g>
          <path class="cls-1" d="M38.1973,20.126A34.69433,34.69433,0,0,1,63.7061,30.6973a34.85708,34.85708,0,0,1,10.538,25.542,34.77576,34.77576,0,0,1-10.538,25.4755A34.68663,34.68663,0,0,1,38.1973,92.2861,34.714,34.714,0,0,1,12.7217,81.7148,34.71911,34.71911,0,0,1,2.1504,56.2393a34.80013,34.80013,0,0,1,10.5713-25.542A34.72175,34.72175,0,0,1,38.1973,20.126ZM17.1201,35.1621A28.72371,28.72371,0,0,0,8.3877,56.2393a28.61357,28.61357,0,0,0,8.7324,21.0439,28.76933,28.76933,0,0,0,21.0772,8.6992,28.76992,28.76992,0,0,0,21.0761-8.6992,28.61449,28.61449,0,0,0,8.7334-21.0439,28.72464,28.72464,0,0,0-8.7334-21.0772,28.7211,28.7211,0,0,0-21.0761-8.7324A28.72051,28.72051,0,0,0,17.1201,35.1621Z"/>
          <path class="cls-2" d="M38.1973,20.126A34.69433,34.69433,0,0,1,63.7061,30.6973a34.85708,34.85708,0,0,1,10.538,25.542,34.77576,34.77576,0,0,1-10.538,25.4755A34.68663,34.68663,0,0,1,38.1973,92.2861,34.714,34.714,0,0,1,12.7217,81.7148,34.71911,34.71911,0,0,1,2.1504,56.2393a34.80013,34.80013,0,0,1,10.5713-25.542A34.72175,34.72175,0,0,1,38.1973,20.126m0-2.1494A36.95082,36.95082,0,0,0,11.2022,29.1777,37.02782,37.02782,0,0,0,0,56.2393,36.94855,36.94855,0,0,0,11.2022,83.2344,36.94216,36.94216,0,0,0,38.1973,94.4356,36.92084,36.92084,0,0,0,65.2285,83.2324,37.00824,37.00824,0,0,0,76.3936,56.2393,37.09122,37.09122,0,0,0,65.2285,29.1797,36.924,36.924,0,0,0,38.1973,17.9766Z"/>
        </g>
        <path class="cls-2" d="M105.8994,35.8106H80.25491L77.0303,31.2588h36.7099L88.04491,76.377H115.6621v4.5527H80.25491Z"/>
        <g>
          <rect class="cls-2" x="131.8477" y="31.2588" width="4.5517" height="49.6709"/>
          <path class="cls-2" d="M135.7402,18.8164a2.30612,2.30612,0,0,0-3.2324,0,2.167,2.167,0,0,0-.6748,1.6035,2.19517,2.19517,0,0,0,.6748,1.6289,2.30364,2.30364,0,0,0,3.2324,0,2.194,2.194,0,0,0,.6739-1.6289A2.16581,2.16581,0,0,0,135.7402,18.8164Z"/>
        </g>
        <path class="cls-2" d="M157.1377,0V80.9297h-4.55179V0Z"/>
        <path class="cls-2" d="M192.79791,81.6377q-9.30617,0-14.82041-5.5127a19.38017,19.38017,0,0,1-5.665-13.9102V31.2588h4.5527V61.8096a14.43491,14.43491,0,0,0,4.6026,10.7744,15.40659,15.40659,0,0,0,11.2793,4.501,14.9962,14.9962,0,0,0,10.84959-4.4756,14.55627,14.55627,0,0,0,4.5781-10.7998V31.2588h4.5518v30.956a19.38393,19.38393,0,0,1-5.6651,13.9102Q201.54779,81.6387,192.79791,81.6377Z"/>
        <path class="cls-2" d="M229.45309,34.0967h4.293v1.0967a13.87615,13.87615,0,0,1,19.4092.1914,13.5395,13.5395,0,0,1,1.9082,2.3838,14.96165,14.96165,0,0,1,1.956-2.3838,13.93019,13.93019,0,0,1,19.64942,0,13.60036,13.60036,0,0,1,4.05278,9.3945V80.9297h-4.292V44.7793h.0478a9.638,9.638,0,0,0-16.43058-6.3437A9.483,9.483,0,0,0,257.21,45.4473V80.9297h-4.29108V44.7793h.04788a9.62711,9.62711,0,0,0-9.6338-9.1562,9.67795,9.67795,0,0,0-9.5869,8.7744V80.9297h-4.293Z"/>
      </g>
    </g>
  </g>
</svg>
